<svg width="1686" height="273" viewBox="0 0 1686 273" fill="none" xmlns="http://www.w3.org/2000/svg">
<g clip-path="url(#clip0_12_122)">
<path d="M150.44 65.67H186.5L210.08 158.21L236.29 65.67H265.28L291.35 157.92L315.2 65.67H351.26L308.4 213.35H278.03L250.71 116.52L223.53 213.35H193.02L150.44 65.67Z" fill="#14B8A6"/>
<path d="M506.19 65.6801H543.44V77.51C553.79 64.8 570.2 59.62 585.57 59.62C626.52 59.62 648.84 95.69 648.84 136.49C648.84 177.73 626.52 213.36 584.98 213.36C569.16 213.36 553.79 208.33 543.44 195.62V271.6H506.19V65.6801ZM612.48 136.5C612.48 111.96 601.39 92.89 576.56 92.89C551.72 92.89 540.19 111.66 540.19 136.5C540.19 161.34 551.72 180.7 576.56 180.7C601.39 180.7 612.48 161.04 612.48 136.5Z" fill="#14B8A6"/>
<path d="M419.12 59.61C390 59.61 371.23 72.62 357.04 91.98L384.71 111.9C391.07 101.13 402.45 91.1 419.42 91.1C442.92 91.1 450.31 100.41 451.05 122.29H410.1C376.99 122.29 351.26 132.93 351.26 165.01C351.26 195.91 374.62 213.35 404.92 213.35C421.77 213.35 441.43 205.96 451.04 190.73V213.35H487.11V120.81C487.11 84.7401 459.32 59.61 419.12 59.61ZM412.17 182.9C396.06 182.9 388.22 175.95 388.22 166.2C388.22 156.89 395.76 148.31 412.17 148.31H450.31H451.04C448.82 165.76 434.34 182.9 412.17 182.9Z" fill="#14B8A6"/>
<path d="M49.32 54.74C49.32 41.44 60.85 32.42 75.63 32.42C89.67 32.42 102.09 40.55 109.33 54.74L144.6 45.12C133.12 12.67 104.78 -1 76.96 -1C41.78 -1 11.77 19.7 11.77 56.65C11.77 124.65 112.89 110.16 112.89 153.48C112.89 168.26 100.77 180.09 78.45 180.09C56.28 180.09 37.8 168.56 35.14 142.54L-2 152.67C4.94 193.32 41.1 213.36 77.85 213.36C117.76 213.36 150.43 189.56 150.43 150.09C150.44 80.75 49.32 94.06 49.32 54.74Z" fill="#14B8A6"/>
<path d="M1567.95 136.15C1567.95 103.18 1551.25 61.6401 1499.51 61.6401C1449.54 61.6401 1427.07 100.67 1427.07 139.1C1427.07 178.06 1450.08 213.88 1498.84 215.31V215.38H1548.87V182.61H1498.84C1477.94 181.41 1466.09 168.52 1463.14 150.11L1566.62 150.34C1567.36 148.27 1567.95 142.21 1567.95 136.15ZM1463.14 124.33C1466.54 105.85 1477.92 91.9601 1499.21 91.9601C1514.88 91.9601 1527 99.7901 1530.7 115.02C1531.59 117.98 1531.88 121.08 1531.88 124.33H1463.14Z" fill="#9FA8B7"/>
<path d="M1412.76 123.8C1412.76 92.9002 1397.53 61.7101 1358.8 61.7101C1344.31 61.7101 1327.31 67.4801 1315.49 81.9601V67.7601H1279.42V215.38H1315.49V215.43V131.63C1315.49 105.91 1328.2 94.9701 1348.46 94.9701C1366.94 94.9701 1376.7 109.01 1376.7 128.38V215.38H1412.77V123.8H1412.76Z" fill="#9FA8B7"/>
<path d="M1260.34 123.8C1260.34 92.9002 1245.11 61.7101 1206.38 61.7101C1191.89 61.7101 1174.89 67.4801 1163.07 81.9601V67.7601H1127V215.38H1163.07V215.43V131.63C1163.07 105.91 1175.78 94.9701 1196.04 94.9701C1214.52 94.9701 1224.28 109.01 1224.28 128.38V215.38H1260.35V123.8H1260.34Z" fill="#9FA8B7"/>
<path d="M1040.04 61.6501C1010.92 61.6501 992.15 74.6601 977.96 94.0201L1005.63 113.94C1011.99 103.17 1023.37 93.1401 1040.34 93.1401C1063.84 93.1401 1071.23 102.45 1071.97 124.33H1031.03C997.92 124.33 972.19 134.97 972.19 167.05C972.19 197.95 995.55 215.39 1025.85 215.39C1042.7 215.39 1062.36 208 1071.97 192.77V215.39H1108.04V122.85C1108.04 86.7801 1080.25 61.6501 1040.04 61.6501ZM1033.09 184.94C1016.98 184.94 1009.14 177.99 1009.14 168.24C1009.14 158.93 1016.68 150.35 1033.09 150.35H1071.23H1071.96C1069.75 167.79 1055.27 184.94 1033.09 184.94Z" fill="#9FA8B7"/>
<path d="M1670.79 101.46L1687.5 72.2301C1680.17 65.0101 1669.64 61.6201 1659.58 61.6201C1642.47 61.6201 1625.2 71.6702 1618.63 89.5602V67.6702H1582.26V215.38H1618.33L1618.32 150.02C1618.32 112.47 1636.5 96.8002 1653.92 96.8002C1659.88 96.8002 1665.53 98.5701 1670.58 101.83L1670.79 101.46Z" fill="#9FA8B7"/>
<path d="M932.73 162.06C928.21 174.4 917.56 182.72 904.09 182.72C878.96 182.72 869.5 161.28 869.5 138.81C869.5 116.78 879.26 94.3102 904.09 94.3102C917.81 94.3102 928.22 102.97 932.72 115.57L962.66 94.0201C950.2 72.2201 929.35 61.6401 904.09 61.6401C855.9 61.6401 832.84 100.08 832.84 138.81C832.84 177.98 856.2 215.39 904.39 215.39C929.46 215.39 949.97 203.45 961.47 182.75L932.73 162.06Z" fill="#9FA8B7"/>
<path fill-rule="evenodd" clip-rule="evenodd" d="M710.64 160.243C645.185 120.961 701.987 22.5348 768.754 59.5789L768.98 59.7069L820.643 89.5304C827.959 93.7533 830.465 103.107 826.243 110.422C822.02 117.737 812.666 120.244 805.351 116.022L753.81 86.2686C722.193 68.8606 695.392 115.281 726.278 133.954L753.976 149.942C761.291 154.165 763.799 163.518 759.576 170.834C755.353 178.149 746 180.656 738.684 176.433L710.864 160.375L710.64 160.243Z" fill="#14B8A6"/>
<path fill-rule="evenodd" clip-rule="evenodd" d="M727.334 102.777C731.556 95.4615 740.91 92.9545 748.225 97.1772L776.045 113.236L776.269 113.368C841.724 152.649 784.922 251.076 718.156 214.032L717.93 213.904L666.266 184.08C658.951 179.857 656.444 170.504 660.667 163.188C664.89 155.873 674.243 153.366 681.559 157.589L733.1 187.342C764.717 204.75 791.518 158.33 760.631 139.657L732.933 123.669C725.618 119.446 723.111 110.092 727.334 102.777Z" fill="#9FA8B7"/>
</g>
<defs>
<clipPath id="clip0_12_122">
<rect width="1686" height="273" fill="white"/>
</clipPath>
</defs>
</svg>
